<?xml version="1.0" encoding="UTF-8" standalone="no"?>
<!DOCTYPE svg PUBLIC "-//W3C//DTD SVG 1.1//EN" "http://www.w3.org/Graphics/SVG/1.1/DTD/svg11.dtd">
<svg width="100%" height="100%" viewBox="0 0 800 800" version="1.1" xmlns="http://www.w3.org/2000/svg" xmlns:xlink="http://www.w3.org/1999/xlink" xml:space="preserve" xmlns:serif="http://www.serif.com/" style="fill-rule:evenodd;clip-rule:evenodd;stroke-linejoin:round;stroke-miterlimit:2;">
    <g transform="matrix(9.56726e-17,1.5625,-1.5625,9.56726e-17,799.971,-0.0360645)">
        <path d="M448.542,317.875C474.719,333.524 483.287,367.564 467.641,393.751L467.638,393.757C451.994,419.915 417.965,428.498 391.776,412.852L358.944,393.226C343.454,408.417 325.338,420.026 305.671,427.338L271.528,502.047C265.457,515.331 246.539,515.303 240.482,502.047L206.338,427.338C186.672,420.027 168.558,408.419 153.065,393.226L120.237,412.85C94.055,428.49 60.024,419.93 44.37,393.757C28.719,367.562 37.287,333.524 63.464,317.874L103.555,293.9C101.086,276.831 101.054,260.217 103.07,244.086L62.361,220.988C35.852,205.956 26.503,172.128 41.527,145.583C56.601,119.033 90.434,109.697 116.96,124.756L150.514,143.784C162.976,131.018 177.331,120.566 192.875,112.923L192.875,63.126C192.875,28.319 221.193,0 256.001,0C290.809,0 319.127,28.318 319.128,63.126L319.128,112.923C334.672,120.567 349.025,131.016 361.488,143.784L395.05,124.752C421.567,109.699 455.404,119.033 470.465,145.564C485.501,172.128 476.153,205.956 449.641,220.99L408.935,244.086C411.077,261.233 410.772,277.845 408.45,293.9L448.542,317.875ZM411.895,154.442L382.887,170.89C390.325,182.631 396.61,195.909 401.071,209.3L432.8,191.299L432.803,191.298C442.956,185.54 446.531,172.575 440.77,162.397C435.01,152.253 422.054,148.673 411.895,154.442ZM79.2,191.299L110.933,209.304C115.534,195.496 121.933,182.232 129.117,170.894L100.115,154.448C89.951,148.678 76.992,152.254 71.222,162.418C65.472,172.575 69.046,185.54 79.2,191.299ZM256.002,453.893L264.146,436.069C259.227,436.349 253.681,436.401 247.856,436.069L256.002,453.893ZM102.725,383.548L131.075,366.601C123.207,354.743 116.711,341.535 112.098,328.562L80.98,347.171C70.951,353.167 67.672,366.208 73.667,376.242C79.658,386.259 92.696,389.542 102.725,383.548ZM438.341,376.236C444.331,366.203 441.051,353.166 431.027,347.172L399.906,328.562C394.965,342.454 388.249,355.571 380.929,366.601L409.284,383.551C419.307,389.539 432.345,386.259 438.341,376.236ZM227.008,63.126L227.008,101.143C246.599,97.066 266.527,97.301 284.993,101.143L284.993,63.126C284.993,47.14 271.986,34.134 256.001,34.134C240.015,34.134 227.009,47.14 227.009,63.126L227.008,63.126ZM273.07,400.55L273.07,347.392L316.888,322.094L354.654,343.898C360.566,334.341 365.405,323.885 368.973,312.751L333.954,292.532L333.954,241.935L369.002,221.701C365.44,210.563 360.607,200.103 354.701,190.541L316.887,212.373L273.069,187.075L273.069,133.813C267.5,132.922 261.809,132.461 256.023,132.461C250.222,132.461 244.517,132.925 238.935,133.82L238.935,187.077L195.117,212.375L157.333,190.561C151.429,200.124 146.598,210.584 143.038,221.722L178.049,241.935L178.049,292.532L143.066,312.73C146.633,323.865 151.471,334.322 157.382,343.88L195.117,322.094L238.935,347.392L238.935,400.543C244.517,401.438 250.222,401.901 256.023,401.901C261.81,401.901 267.501,401.441 273.07,400.55ZM256.002,317.832L212.184,292.534L212.184,241.936L256.002,216.638L299.82,241.936L299.82,292.533L256.002,317.832Z" style="fill:rgb(212,91,91);"/>
    </g>
</svg>
