<?xml version="1.0" encoding="UTF-8" standalone="no"?>
<!DOCTYPE svg PUBLIC "-//W3C//DTD SVG 1.1//EN" "http://www.w3.org/Graphics/SVG/1.1/DTD/svg11.dtd">
<svg width="100%" height="100%" viewBox="0 0 800 800" version="1.1" xmlns="http://www.w3.org/2000/svg" xmlns:xlink="http://www.w3.org/1999/xlink" xml:space="preserve" xmlns:serif="http://www.serif.com/" style="fill-rule:evenodd;clip-rule:evenodd;stroke-linejoin:round;stroke-miterlimit:2;">
    <g transform="matrix(9.56726e-17,1.5625,-1.5625,9.56726e-17,799.971,-0.0360645)">
        <g>
            <path d="M448.542,317.875L408.45,293.9C410.772,277.845 411.077,261.233 408.935,244.086L449.641,220.99C476.153,205.956 485.501,172.128 470.465,145.564C455.404,119.033 421.567,109.699 395.05,124.752L361.488,143.784C349.025,131.016 334.672,120.567 319.128,112.923L319.128,63.126C319.127,28.318 290.809,0 256.001,0C221.193,0 192.875,28.319 192.875,63.126L192.875,112.923C177.331,120.566 162.976,131.018 150.514,143.784L116.96,124.756C90.434,109.697 56.601,119.033 41.527,145.583C26.503,172.128 35.852,205.956 62.361,220.988L103.07,244.086C101.054,260.217 101.086,276.831 103.555,293.9L63.464,317.874C37.287,333.524 28.719,367.562 44.37,393.757C60.024,419.93 94.055,428.49 120.237,412.85L153.065,393.226C168.558,408.419 186.672,420.027 206.338,427.338L240.482,502.047C246.539,515.303 265.457,515.331 271.528,502.047L305.671,427.338C325.338,420.026 343.454,408.417 358.944,393.226L391.776,412.852C417.965,428.498 451.994,419.915 467.638,393.757C467.639,393.756 467.64,393.754 467.641,393.751C483.287,367.564 474.719,333.524 448.542,317.875ZM411.895,154.442C422.054,148.673 435.01,152.253 440.77,162.397C446.531,172.575 442.956,185.54 432.803,191.298C432.802,191.298 432.801,191.299 432.8,191.299L401.071,209.3C396.61,195.909 390.325,182.631 382.887,170.89L411.895,154.442ZM354.856,190.452L316.887,212.373L273.069,187.075L273.069,133.679C307.456,139.169 336.515,160.78 354.856,190.452ZM227.008,63.126L227.009,63.126C227.009,47.14 240.015,34.134 256.001,34.134C271.986,34.134 284.993,47.14 284.993,63.126L284.993,101.143C266.527,97.301 246.599,97.066 227.008,101.143L227.008,63.126ZM238.935,133.681L238.935,187.077L195.117,212.375L157.148,190.454C175.593,160.612 204.716,139.143 238.935,133.681ZM79.2,191.299C69.046,185.54 65.472,172.575 71.222,162.418C76.992,152.254 89.951,148.678 100.115,154.448L129.117,170.894C121.933,182.232 115.534,195.496 110.933,209.304L79.2,191.299ZM102.725,383.548C92.696,389.542 79.658,386.259 73.667,376.242C67.672,366.208 70.951,353.167 80.98,347.171L112.098,328.562C116.711,341.535 123.207,354.743 131.075,366.601L102.725,383.548ZM142.832,312.865C133.27,283.057 133.525,250.578 142.825,221.599L178.049,241.935L178.049,292.532L142.832,312.865ZM238.934,400.804C205.284,395.439 175.925,374.384 157.15,344.014L195.117,322.094L238.935,347.392L238.935,400.804L238.934,400.804ZM256.002,453.893L247.856,436.069C253.681,436.401 259.227,436.349 264.146,436.069L256.002,453.893ZM256.002,317.832L212.184,292.534L212.184,241.936L256.002,216.638L299.82,241.936L299.82,292.533L256.002,317.832ZM273.07,400.804L273.07,347.392L316.888,322.094L354.855,344.014C335.998,374.511 306.586,395.46 273.07,400.804ZM369.171,312.865L333.954,292.532L333.954,241.935L369.178,221.599C378.269,249.922 378.938,282.419 369.171,312.865ZM438.341,376.236C432.345,386.259 419.307,389.539 409.284,383.551L380.929,366.601C388.249,355.571 394.965,342.454 399.906,328.562L431.027,347.172C441.051,353.166 444.331,366.203 438.341,376.236Z" style="fill:rgb(212,91,91);fill-rule:nonzero;"/>
        </g>
    </g>
</svg>
